# xmcd
#
# Track frame offsets: 
#        150
#        30115
#        46905
#        77813
#        105071
#        124331
#        151538
#        177209
#        198895
#        214008
#
# Disc length: 3141 seconds
#
# Revision: 0
# Processed by: cddbd v1.5.2PL0 Copyright (c) Steve Scherf et al.
# Submitted via: ExactAudioCopy v1.3
#
DISCID=680c430a
DTITLE=Nick Schnebelen - Live In Kansas City
DYEAR=2017
DGENRE=Blues Rock
TTITLE0=Fool
TTITLE1=Pain In My Mind
TTITLE2=Herbert Harper's Free Press News
TTITLE3=You Call That Love
TTITLE4=Bad Woman Blues
TTITLE5=Mean Town Blues
TTITLE6=Johnny Cheat
TTITLE7=Bad Disposition
TTITLE8=Schoolnight
TTITLE9=Conformity Blues
EXTD=
EXTT0=
EXTT1=
EXTT2=
EXTT3=
EXTT4=
EXTT5=
EXTT6=
EXTT7=
EXTT8=
EXTT9=
PLAYORDER=
